<?xml version="1.0" encoding="us-ascii" standalone="no"?><svg xmlns="http://www.w3.org/2000/svg" xmlns:xlink="http://www.w3.org/1999/xlink" contentStyleType="text/css" height="839px" preserveAspectRatio="none" style="width:1189px;height:839px;background:#FFFFFF;" version="1.1" viewBox="0 0 1189 839" width="1189px" zoomAndPan="magnify"><defs/><g><rect fill="#FFFFFF" height="576.2266" style="stroke:#181818;stroke-width:1.0;" width="10" x="224" y="91.2969"/><rect fill="#FFFFFF" height="38.1328" style="stroke:#181818;stroke-width:1.0;" width="10" x="224" y="711.7891"/><rect fill="none" height="353.2969" style="stroke:#000000;stroke-width:1.5;" width="612" x="571" y="227.8281"/><rect fill="none" height="322.1641" style="stroke:#000000;stroke-width:1.5;" width="592" x="581" y="251.9609"/><rect fill="none" height="90.2031" style="stroke:#000000;stroke-width:1.5;" width="572" x="591" y="476.9219"/><line style="stroke:#181818;stroke-width:0.5;stroke-dasharray:5.0,5.0;" x1="24" x2="24" y1="81.2969" y2="758.9219"/><line style="stroke:#181818;stroke-width:0.5;stroke-dasharray:5.0,5.0;" x1="229" x2="229" y1="81.2969" y2="758.9219"/><line style="stroke:#181818;stroke-width:0.5;stroke-dasharray:5.0,5.0;" x1="504.5" x2="504.5" y1="81.2969" y2="758.9219"/><line style="stroke:#181818;stroke-width:0.5;stroke-dasharray:5.0,5.0;" x1="640" x2="640" y1="81.2969" y2="758.9219"/><line style="stroke:#181818;stroke-width:0.5;stroke-dasharray:5.0,5.0;" x1="782" x2="782" y1="81.2969" y2="758.9219"/><line style="stroke:#181818;stroke-width:0.5;stroke-dasharray:5.0,5.0;" x1="897" x2="897" y1="81.2969" y2="758.9219"/><line style="stroke:#181818;stroke-width:0.5;stroke-dasharray:5.0,5.0;" x1="997" x2="997" y1="81.2969" y2="758.9219"/><line style="stroke:#181818;stroke-width:0.5;stroke-dasharray:5.0,5.0;" x1="1103" x2="1103" y1="392.5078" y2="758.9219"/><text fill="#000000" font-family="sans-serif" font-size="14" lengthAdjust="spacing" textLength="32" x="5" y="77.9951">User</text><ellipse cx="24" cy="13.5" fill="#E2E2F0" rx="8" ry="8" style="stroke:#181818;stroke-width:0.5;"/><path d="M24,21.5 L24,48.5 M11,29.5 L37,29.5 M24,48.5 L11,63.5 M24,48.5 L37,63.5 " fill="none" style="stroke:#181818;stroke-width:0.5;"/><text fill="#000000" font-family="sans-serif" font-size="14" lengthAdjust="spacing" textLength="32" x="5" y="770.917">User</text><ellipse cx="24" cy="782.7188" fill="#E2E2F0" rx="8" ry="8" style="stroke:#181818;stroke-width:0.5;"/><path d="M24,790.7188 L24,817.7188 M11,798.7188 L37,798.7188 M24,817.7188 L11,832.7188 M24,817.7188 L37,832.7188 " fill="none" style="stroke:#181818;stroke-width:0.5;"/><text fill="#000000" font-family="sans-serif" font-size="14" lengthAdjust="spacing" textLength="96" x="178" y="77.9951">Browser Page</text><path d="M208.5,37 L208.5,61 M208.5,49 L225.5,49 " fill="none" style="stroke:#181818;stroke-width:0.5;"/><ellipse cx="237.5" cy="49" fill="#E2E2F0" rx="12" ry="12" style="stroke:#181818;stroke-width:0.5;"/><text fill="#000000" font-family="sans-serif" font-size="14" lengthAdjust="spacing" textLength="96" x="178" y="770.917">Browser Page</text><path d="M208.5,778.2188 L208.5,802.2188 M208.5,790.2188 L225.5,790.2188 " fill="none" style="stroke:#181818;stroke-width:0.5;"/><ellipse cx="237.5" cy="790.2188" fill="#E2E2F0" rx="12" ry="12" style="stroke:#181818;stroke-width:0.5;"/><text fill="#000000" font-family="sans-serif" font-size="14" lengthAdjust="spacing" textLength="81" x="461.5" y="77.9951">Flask Route</text><ellipse cx="505" cy="49" fill="#E2E2F0" rx="12" ry="12" style="stroke:#181818;stroke-width:0.5;"/><polygon fill="#181818" points="501,37,507,32,505,37,507,42,501,37" style="stroke:#181818;stroke-width:1.0;"/><text fill="#000000" font-family="sans-serif" font-size="14" lengthAdjust="spacing" textLength="81" x="461.5" y="770.917">Flask Route</text><ellipse cx="505" cy="790.2188" fill="#E2E2F0" rx="12" ry="12" style="stroke:#181818;stroke-width:0.5;"/><polygon fill="#181818" points="501,778.2188,507,773.2188,505,778.2188,507,783.2188,501,778.2188" style="stroke:#181818;stroke-width:1.0;"/><text fill="#000000" font-family="sans-serif" font-size="14" lengthAdjust="spacing" textLength="72" x="601" y="77.9951">GA Engine</text><ellipse cx="640" cy="49" fill="#E2E2F0" rx="12" ry="12" style="stroke:#181818;stroke-width:0.5;"/><line style="stroke:#181818;stroke-width:0.5;" x1="628" x2="652" y1="63" y2="63"/><text fill="#000000" font-family="sans-serif" font-size="14" lengthAdjust="spacing" textLength="72" x="601" y="770.917">GA Engine</text><ellipse cx="640" cy="790.2188" fill="#E2E2F0" rx="12" ry="12" style="stroke:#181818;stroke-width:0.5;"/><line style="stroke:#181818;stroke-width:0.5;" x1="628" x2="652" y1="804.2188" y2="804.2188"/><text fill="#000000" font-family="sans-serif" font-size="14" lengthAdjust="spacing" textLength="114" x="722" y="77.9951">Lattice Renderer</text><ellipse cx="782" cy="49" fill="#E2E2F0" rx="12" ry="12" style="stroke:#181818;stroke-width:0.5;"/><line style="stroke:#181818;stroke-width:0.5;" x1="770" x2="794" y1="63" y2="63"/><text fill="#000000" font-family="sans-serif" font-size="14" lengthAdjust="spacing" textLength="114" x="722" y="770.917">Lattice Renderer</text><ellipse cx="782" cy="790.2188" fill="#E2E2F0" rx="12" ry="12" style="stroke:#181818;stroke-width:0.5;"/><line style="stroke:#181818;stroke-width:0.5;" x1="770" x2="794" y1="804.2188" y2="804.2188"/><text fill="#000000" font-family="sans-serif" font-size="14" lengthAdjust="spacing" textLength="84" x="852" y="77.9951">Fitness/Utils</text><ellipse cx="897" cy="49" fill="#E2E2F0" rx="12" ry="12" style="stroke:#181818;stroke-width:0.5;"/><line style="stroke:#181818;stroke-width:0.5;" x1="885" x2="909" y1="63" y2="63"/><text fill="#000000" font-family="sans-serif" font-size="14" lengthAdjust="spacing" textLength="84" x="852" y="770.917">Fitness/Utils</text><ellipse cx="897" cy="790.2188" fill="#E2E2F0" rx="12" ry="12" style="stroke:#181818;stroke-width:0.5;"/><line style="stroke:#181818;stroke-width:0.5;" x1="885" x2="909" y1="804.2188" y2="804.2188"/><rect fill="#E2E2F0" height="30.2969" style="stroke:#181818;stroke-width:0.5;" width="87" x="956" y="46"/><rect fill="#E2E2F0" height="30.2969" style="stroke:#181818;stroke-width:0.5;" width="87" x="952" y="50"/><text fill="#000000" font-family="sans-serif" font-size="14" lengthAdjust="spacing" textLength="73" x="959" y="69.9951">Population</text><rect fill="#E2E2F0" height="30.2969" style="stroke:#181818;stroke-width:0.5;" width="87" x="956" y="757.9219"/><rect fill="#E2E2F0" height="30.2969" style="stroke:#181818;stroke-width:0.5;" width="87" x="952" y="761.9219"/><text fill="#000000" font-family="sans-serif" font-size="14" lengthAdjust="spacing" textLength="73" x="959" y="781.917">Population</text><text fill="#000000" font-family="sans-serif" font-size="14" lengthAdjust="spacing" textLength="94" x="1053" y="770.917">Chromosome</text><ellipse cx="1103" cy="790.2188" fill="#E2E2F0" rx="12" ry="12" style="stroke:#181818;stroke-width:0.5;"/><line style="stroke:#181818;stroke-width:0.5;" x1="1091" x2="1115" y1="804.2188" y2="804.2188"/><rect fill="#FFFFFF" height="576.2266" style="stroke:#181818;stroke-width:1.0;" width="10" x="224" y="91.2969"/><rect fill="#FFFFFF" height="38.1328" style="stroke:#181818;stroke-width:1.0;" width="10" x="224" y="711.7891"/><polygon fill="#181818" points="212,108.4297,222,112.4297,212,116.4297,216,112.4297" style="stroke:#181818;stroke-width:1.0;"/><line style="stroke:#181818;stroke-width:1.0;" x1="24" x2="218" y1="112.4297" y2="112.4297"/><text fill="#000000" font-family="sans-serif" font-size="13" lengthAdjust="spacing" textLength="176" x="31" y="107.3638">Enter parameters &amp; submit</text><polygon fill="#181818" points="493,137.5625,503,141.5625,493,145.5625,497,141.5625" style="stroke:#181818;stroke-width:1.0;"/><line style="stroke:#181818;stroke-width:1.0;" x1="234" x2="499" y1="141.5625" y2="141.5625"/><text fill="#000000" font-family="sans-serif" font-size="13" lengthAdjust="spacing" textLength="149" x="241" y="136.4966">POST request with data</text><line style="stroke:#181818;stroke-width:1.0;" x1="234" x2="276" y1="170.6953" y2="170.6953"/><line style="stroke:#181818;stroke-width:1.0;" x1="276" x2="276" y1="170.6953" y2="183.6953"/><line style="stroke:#181818;stroke-width:1.0;" x1="235" x2="276" y1="183.6953" y2="183.6953"/><polygon fill="#181818" points="245,179.6953,235,183.6953,245,187.6953,241,183.6953" style="stroke:#181818;stroke-width:1.0;"/><text fill="#000000" font-family="sans-serif" font-size="13" lengthAdjust="spacing" textLength="114" x="241" y="165.6294">Waiting animation</text><polygon fill="#181818" points="628,208.8281,638,212.8281,628,216.8281,632,212.8281" style="stroke:#181818;stroke-width:1.0;"/><line style="stroke:#181818;stroke-width:1.0;" x1="505" x2="634" y1="212.8281" y2="212.8281"/><text fill="#000000" font-family="sans-serif" font-size="13" lengthAdjust="spacing" textLength="92" x="512" y="207.7622">run(params...)</text><path d="M571,227.8281 L648,227.8281 L648,234.9609 L638,244.9609 L571,244.9609 L571,227.8281 " fill="#EEEEEE" style="stroke:#000000;stroke-width:1.5;"/><rect fill="none" height="353.2969" style="stroke:#000000;stroke-width:1.5;" width="612" x="571" y="227.8281"/><text fill="#000000" font-family="sans-serif" font-size="13" font-weight="bold" lengthAdjust="spacing" textLength="32" x="586" y="240.895">loop</text><text fill="#000000" font-family="sans-serif" font-size="11" font-weight="bold" lengthAdjust="spacing" textLength="176" x="663" y="240.0386">[for each generation (1..G)]</text><path d="M581,251.9609 L658,251.9609 L658,259.0938 L648,269.0938 L581,269.0938 L581,251.9609 " fill="#EEEEEE" style="stroke:#000000;stroke-width:1.5;"/><rect fill="none" height="322.1641" style="stroke:#000000;stroke-width:1.5;" width="592" x="581" y="251.9609"/><text fill="#000000" font-family="sans-serif" font-size="13" font-weight="bold" lengthAdjust="spacing" textLength="32" x="596" y="265.0278">loop</text><text fill="#000000" font-family="sans-serif" font-size="11" font-weight="bold" lengthAdjust="spacing" textLength="176" x="673" y="264.1714">[until |new population| = P]</text><line style="stroke:#181818;stroke-width:1.0;" x1="640" x2="682" y1="290.2266" y2="290.2266"/><line style="stroke:#181818;stroke-width:1.0;" x1="682" x2="682" y1="290.2266" y2="303.2266"/><line style="stroke:#181818;stroke-width:1.0;" x1="641" x2="682" y1="303.2266" y2="303.2266"/><polygon fill="#181818" points="651,299.2266,641,303.2266,651,307.2266,647,303.2266" style="stroke:#181818;stroke-width:1.0;"/><text fill="#000000" font-family="sans-serif" font-size="13" lengthAdjust="spacing" textLength="103" x="647" y="285.1606">parent selection</text><line style="stroke:#181818;stroke-width:1.0;" x1="640" x2="682" y1="332.3594" y2="332.3594"/><line style="stroke:#181818;stroke-width:1.0;" x1="682" x2="682" y1="332.3594" y2="345.3594"/><line style="stroke:#181818;stroke-width:1.0;" x1="641" x2="682" y1="345.3594" y2="345.3594"/><polygon fill="#181818" points="651,341.3594,641,345.3594,651,349.3594,647,345.3594" style="stroke:#181818;stroke-width:1.0;"/><text fill="#000000" font-family="sans-serif" font-size="13" lengthAdjust="spacing" textLength="128" x="647" y="327.2935">crossover + mutate</text><polygon fill="#181818" points="1041,370.4922,1051,374.4922,1041,378.4922,1045,374.4922" style="stroke:#181818;stroke-width:1.0;"/><line style="stroke:#181818;stroke-width:1.0;" x1="640" x2="1047" y1="374.4922" y2="374.4922"/><text fill="#000000" font-family="sans-serif" font-size="13" lengthAdjust="spacing" textLength="51" x="647" y="369.4263">initialize</text><text fill="#000000" font-family="sans-serif" font-size="14" lengthAdjust="spacing" textLength="94" x="1053" y="398.3545">Chromosome</text><ellipse cx="1103" cy="369.3594" fill="#E2E2F0" rx="12" ry="12" style="stroke:#181818;stroke-width:0.5;"/><line style="stroke:#181818;stroke-width:0.5;" x1="1091" x2="1115" y1="383.3594" y2="383.3594"/><polygon fill="#181818" points="885,428.7891,895,432.7891,885,436.7891,889,432.7891" style="stroke:#181818;stroke-width:1.0;"/><line style="stroke:#181818;stroke-width:1.0;" x1="640" x2="891" y1="432.7891" y2="432.7891"/><text fill="#000000" font-family="sans-serif" font-size="13" lengthAdjust="spacing" textLength="99" x="647" y="427.7231">fitness(Ch, raw)</text><polygon fill="#181818" points="651,457.9219,641,461.9219,651,465.9219,647,461.9219" style="stroke:#181818;stroke-width:1.0;"/><line style="stroke:#181818;stroke-width:1.0;stroke-dasharray:2.0,2.0;" x1="645" x2="896" y1="461.9219" y2="461.9219"/><text fill="#000000" font-family="sans-serif" font-size="13" lengthAdjust="spacing" textLength="27" x="657" y="456.856">scor</text><path d="M591,476.9219 L655,476.9219 L655,484.0547 L645,494.0547 L591,494.0547 L591,476.9219 " fill="#EEEEEE" style="stroke:#000000;stroke-width:1.5;"/><rect fill="none" height="90.2031" style="stroke:#000000;stroke-width:1.5;" width="572" x="591" y="476.9219"/><text fill="#000000" font-family="sans-serif" font-size="13" font-weight="bold" lengthAdjust="spacing" textLength="19" x="606" y="489.9888">alt</text><text fill="#000000" font-family="sans-serif" font-size="11" font-weight="bold" lengthAdjust="spacing" textLength="138" x="670" y="489.1323">[invalid chromosome]</text><polygon fill="#181818" points="1091,511.1875,1101,515.1875,1091,519.1875,1095,515.1875" style="stroke:#181818;stroke-width:1.0;"/><line style="stroke:#181818;stroke-width:1.0;" x1="640" x2="1097" y1="515.1875" y2="515.1875"/><text fill="#000000" font-family="sans-serif" font-size="13" lengthAdjust="spacing" textLength="46" x="647" y="510.1216">discard</text><line style="stroke:#A80036;stroke-width:2.0;" x1="1094" x2="1112" y1="506.1875" y2="524.1875"/><line style="stroke:#A80036;stroke-width:2.0;" x1="1094" x2="1112" y1="524.1875" y2="506.1875"/><line style="stroke:#000000;stroke-width:1.0;stroke-dasharray:2.0,2.0;" x1="591" x2="1163" y1="524.1875" y2="524.1875"/><text fill="#000000" font-family="sans-serif" font-size="11" font-weight="bold" lengthAdjust="spacing" textLength="126" x="596" y="534.3979">[valid chromosome]</text><polygon fill="#181818" points="985.5,555.125,995.5,559.125,985.5,563.125,989.5,559.125" style="stroke:#181818;stroke-width:1.0;"/><line style="stroke:#181818;stroke-width:1.0;" x1="640" x2="991.5" y1="559.125" y2="559.125"/><text fill="#000000" font-family="sans-serif" font-size="13" lengthAdjust="spacing" textLength="121" x="647" y="554.0591">add(Chromosome)</text><polygon fill="#181818" points="516,605.2578,506,609.2578,516,613.2578,512,609.2578" style="stroke:#181818;stroke-width:1.0;"/><line style="stroke:#181818;stroke-width:1.0;stroke-dasharray:2.0,2.0;" x1="510" x2="639" y1="609.2578" y2="609.2578"/><text fill="#000000" font-family="sans-serif" font-size="13" lengthAdjust="spacing" textLength="111" x="522" y="604.1919">return best result</text><polygon fill="#181818" points="770,634.3906,780,638.3906,770,642.3906,774,638.3906" style="stroke:#181818;stroke-width:1.0;"/><line style="stroke:#181818;stroke-width:1.0;" x1="505" x2="776" y1="638.3906" y2="638.3906"/><text fill="#000000" font-family="sans-serif" font-size="13" lengthAdjust="spacing" textLength="213" x="512" y="633.3247">create_lattice_diagram(best.ruld)</text><polygon fill="#181818" points="516,663.5234,506,667.5234,516,671.5234,512,667.5234" style="stroke:#181818;stroke-width:1.0;"/><line style="stroke:#181818;stroke-width:1.0;stroke-dasharray:2.0,2.0;" x1="510" x2="781" y1="667.5234" y2="667.5234"/><text fill="#000000" font-family="sans-serif" font-size="13" lengthAdjust="spacing" textLength="71" x="522" y="662.4575">return PNG</text><polygon fill="#181818" points="245,707.7891,235,711.7891,245,715.7891,241,711.7891" style="stroke:#181818;stroke-width:1.0;"/><line style="stroke:#181818;stroke-width:1.0;" x1="239" x2="504" y1="711.7891" y2="711.7891"/><text fill="#000000" font-family="sans-serif" font-size="13" lengthAdjust="spacing" textLength="183" x="251" y="691.5903">render_template(index.html,</text><text fill="#000000" font-family="sans-serif" font-size="13" lengthAdjust="spacing" textLength="252" x="251" y="706.7231">form, result=PNG, meta=fitness,RULD)</text><polygon fill="#181818" points="35,736.9219,25,740.9219,35,744.9219,31,740.9219" style="stroke:#181818;stroke-width:1.0;"/><line style="stroke:#181818;stroke-width:1.0;stroke-dasharray:2.0,2.0;" x1="29" x2="223" y1="740.9219" y2="740.9219"/><text fill="#000000" font-family="sans-serif" font-size="13" lengthAdjust="spacing" textLength="167" x="41" y="735.856">Show images &amp; metadata</text><!--SRC=[VLDDZzCm4BtxLunwGAde1d6jLAIbq5vMK7MfkAnKkV5iOk7OPJnf0UsFP-oawUuYSKYKoNj-y_MiAmu4kuYar25qtcZw3PEF5Cxo2pQwnWde2Aj0hQg2PmeE9Ykdum_OXevxTCda57gsB6VNj_3PrzRtqFfs1EuqiwqGjkWD4bB6By78Mbds6EEx7LiN-zoM9RLpMB4DFi9a4uwTqod8k8HAQG5Fch6lDFK3Dnzo07EfXoK-Qj8jobU4Dn2xGokwcI34r84GDr_llm7XpmuZmzbo0qQpLYDjqFkkBLjVW_QspNKebGM48TtFWJfVv6onBCkfKig5S8H76JJgge4QFL8-1yNxibnF5K1cT3831qyUpt0SUto21Mo40Kdxaa7KPM0GSPZAQxoY46CuITTleUrO1gCofI9CGng6lMpI_2RBXa8ROcXnyan7m3bOBvrgP__WCqGM8j1ZlwXYsSo0z7cQ2GcwkHGHgq1zMkrOf4uYPA0QisNeHJfZOwN9382HBL18PUOVw2B2VpN42IAYZIckBVLrYSjK_qwFKeb_NJiXT-JXaBPE63l7ruLU39g7ceQtTxsFzyRgMdPSf6CbTSvCrKZ-LtppPQsKmPS-lIGPV4Nv-9wnFKeIBAo4lyg6MpTxy6AVTZQKjn2r6OYPzM9Omsoxk_iqVNqF1kDAXdmZvd3VX3E8QMjCbo0998F_1G00]--></g></svg>